<mxfile host="app.diagrams.net" modified="2024-06-28T21:51:44.535Z" agent="Mozilla/5.0 (Windows NT 10.0; Win64; x64) AppleWebKit/537.36 (KHTML, like Gecko) Chrome/126.0.0.0 Safari/537.36 Edg/126.0.0.0" etag="yMHXXb6Z2b5i0APCRmKs" version="24.4.13" type="device">
  <diagram name="PÃ¡gina-1" id="E98lCQYxj7oxe0HKoG6b">
    <mxGraphModel dx="2680" dy="802" grid="1" gridSize="10" guides="1" tooltips="1" connect="1" arrows="1" fold="1" page="1" pageScale="1" pageWidth="827" pageHeight="1169" math="0" shadow="0">
      <root>
        <mxCell id="0" />
        <mxCell id="1" parent="0" />
        <mxCell id="Xc_M2AaOlMVjoZl0VrPC-4" style="edgeStyle=orthogonalEdgeStyle;rounded=0;orthogonalLoop=1;jettySize=auto;html=1;entryX=0.5;entryY=0;entryDx=0;entryDy=0;" edge="1" parent="1" source="Xc_M2AaOlMVjoZl0VrPC-2">
          <mxGeometry relative="1" as="geometry">
            <mxPoint x="110" y="170" as="targetPoint" />
          </mxGeometry>
        </mxCell>
        <mxCell id="Xc_M2AaOlMVjoZl0VrPC-2" value="Inicio" style="rounded=1;whiteSpace=wrap;html=1;" vertex="1" parent="1">
          <mxGeometry x="50" y="50" width="120" height="60" as="geometry" />
        </mxCell>
        <mxCell id="Xc_M2AaOlMVjoZl0VrPC-7" value="" style="edgeStyle=orthogonalEdgeStyle;rounded=0;orthogonalLoop=1;jettySize=auto;html=1;" edge="1" parent="1" source="Xc_M2AaOlMVjoZl0VrPC-5">
          <mxGeometry relative="1" as="geometry">
            <mxPoint x="110" y="280" as="targetPoint" />
          </mxGeometry>
        </mxCell>
        <mxCell id="Xc_M2AaOlMVjoZl0VrPC-5" value="Ingrese valor A&amp;nbsp;&lt;div&gt;Ingrese valor B&lt;/div&gt;&lt;div&gt;Ingrese valor C&lt;/div&gt;" style="shape=document;whiteSpace=wrap;html=1;boundedLbl=1;" vertex="1" parent="1">
          <mxGeometry x="50" y="170" width="120" height="80" as="geometry" />
        </mxCell>
        <mxCell id="Xc_M2AaOlMVjoZl0VrPC-32" style="edgeStyle=orthogonalEdgeStyle;rounded=0;orthogonalLoop=1;jettySize=auto;html=1;" edge="1" parent="1" source="Xc_M2AaOlMVjoZl0VrPC-9" target="Xc_M2AaOlMVjoZl0VrPC-13">
          <mxGeometry relative="1" as="geometry" />
        </mxCell>
        <mxCell id="Xc_M2AaOlMVjoZl0VrPC-33" value="no" style="edgeLabel;html=1;align=center;verticalAlign=middle;resizable=0;points=[];" vertex="1" connectable="0" parent="Xc_M2AaOlMVjoZl0VrPC-32">
          <mxGeometry x="-0.08" relative="1" as="geometry">
            <mxPoint as="offset" />
          </mxGeometry>
        </mxCell>
        <mxCell id="Xc_M2AaOlMVjoZl0VrPC-9" value="A = B&lt;br&gt;B = C" style="rhombus;whiteSpace=wrap;html=1;" vertex="1" parent="1">
          <mxGeometry x="70" y="280" width="80" height="80" as="geometry" />
        </mxCell>
        <mxCell id="Xc_M2AaOlMVjoZl0VrPC-16" style="edgeStyle=orthogonalEdgeStyle;rounded=0;orthogonalLoop=1;jettySize=auto;html=1;entryX=0;entryY=0.5;entryDx=0;entryDy=0;" edge="1" parent="1" source="Xc_M2AaOlMVjoZl0VrPC-13" target="Xc_M2AaOlMVjoZl0VrPC-15">
          <mxGeometry relative="1" as="geometry" />
        </mxCell>
        <mxCell id="Xc_M2AaOlMVjoZl0VrPC-17" value="si" style="edgeLabel;html=1;align=center;verticalAlign=middle;resizable=0;points=[];" vertex="1" connectable="0" parent="Xc_M2AaOlMVjoZl0VrPC-16">
          <mxGeometry x="-0.28" y="1" relative="1" as="geometry">
            <mxPoint as="offset" />
          </mxGeometry>
        </mxCell>
        <mxCell id="Xc_M2AaOlMVjoZl0VrPC-19" style="edgeStyle=orthogonalEdgeStyle;rounded=0;orthogonalLoop=1;jettySize=auto;html=1;entryX=1;entryY=0.5;entryDx=0;entryDy=0;" edge="1" parent="1" source="Xc_M2AaOlMVjoZl0VrPC-13" target="Xc_M2AaOlMVjoZl0VrPC-18">
          <mxGeometry relative="1" as="geometry" />
        </mxCell>
        <mxCell id="Xc_M2AaOlMVjoZl0VrPC-20" value="no" style="edgeLabel;html=1;align=center;verticalAlign=middle;resizable=0;points=[];" vertex="1" connectable="0" parent="Xc_M2AaOlMVjoZl0VrPC-19">
          <mxGeometry x="-0.28" y="1" relative="1" as="geometry">
            <mxPoint as="offset" />
          </mxGeometry>
        </mxCell>
        <mxCell id="Xc_M2AaOlMVjoZl0VrPC-35" style="edgeStyle=orthogonalEdgeStyle;rounded=0;orthogonalLoop=1;jettySize=auto;html=1;entryX=0.5;entryY=0;entryDx=0;entryDy=0;" edge="1" parent="1" source="Xc_M2AaOlMVjoZl0VrPC-13" target="Xc_M2AaOlMVjoZl0VrPC-34">
          <mxGeometry relative="1" as="geometry" />
        </mxCell>
        <mxCell id="Xc_M2AaOlMVjoZl0VrPC-13" value="A&amp;gt;B &amp;amp; A&amp;gt;C" style="rhombus;whiteSpace=wrap;html=1;" vertex="1" parent="1">
          <mxGeometry x="70" y="410" width="80" height="80" as="geometry" />
        </mxCell>
        <mxCell id="Xc_M2AaOlMVjoZl0VrPC-15" value="A es mayor" style="shape=document;whiteSpace=wrap;html=1;boundedLbl=1;" vertex="1" parent="1">
          <mxGeometry x="250" y="410" width="120" height="80" as="geometry" />
        </mxCell>
        <mxCell id="Xc_M2AaOlMVjoZl0VrPC-22" style="edgeStyle=orthogonalEdgeStyle;rounded=0;orthogonalLoop=1;jettySize=auto;html=1;entryX=1;entryY=0.5;entryDx=0;entryDy=0;" edge="1" parent="1" source="Xc_M2AaOlMVjoZl0VrPC-18" target="Xc_M2AaOlMVjoZl0VrPC-21">
          <mxGeometry relative="1" as="geometry" />
        </mxCell>
        <mxCell id="Xc_M2AaOlMVjoZl0VrPC-40" style="edgeStyle=orthogonalEdgeStyle;rounded=0;orthogonalLoop=1;jettySize=auto;html=1;" edge="1" parent="1" source="Xc_M2AaOlMVjoZl0VrPC-18" target="Xc_M2AaOlMVjoZl0VrPC-39">
          <mxGeometry relative="1" as="geometry" />
        </mxCell>
        <mxCell id="Xc_M2AaOlMVjoZl0VrPC-50" value="" style="edgeStyle=orthogonalEdgeStyle;rounded=0;orthogonalLoop=1;jettySize=auto;html=1;" edge="1" parent="1" source="Xc_M2AaOlMVjoZl0VrPC-18" target="Xc_M2AaOlMVjoZl0VrPC-21">
          <mxGeometry relative="1" as="geometry" />
        </mxCell>
        <mxCell id="Xc_M2AaOlMVjoZl0VrPC-51" value="si" style="edgeLabel;html=1;align=center;verticalAlign=middle;resizable=0;points=[];" vertex="1" connectable="0" parent="Xc_M2AaOlMVjoZl0VrPC-50">
          <mxGeometry x="-0.2222" y="-4" relative="1" as="geometry">
            <mxPoint as="offset" />
          </mxGeometry>
        </mxCell>
        <mxCell id="Xc_M2AaOlMVjoZl0VrPC-18" value="B&amp;gt;C &amp;amp; B&amp;gt;A" style="rhombus;whiteSpace=wrap;html=1;" vertex="1" parent="1">
          <mxGeometry x="-110" y="410" width="80" height="80" as="geometry" />
        </mxCell>
        <mxCell id="Xc_M2AaOlMVjoZl0VrPC-21" value="B es mayor" style="shape=document;whiteSpace=wrap;html=1;boundedLbl=1;" vertex="1" parent="1">
          <mxGeometry x="-320" y="410" width="120" height="80" as="geometry" />
        </mxCell>
        <mxCell id="Xc_M2AaOlMVjoZl0VrPC-23" value="C es mayor" style="shape=document;whiteSpace=wrap;html=1;boundedLbl=1;" vertex="1" parent="1">
          <mxGeometry x="-320" y="270" width="120" height="80" as="geometry" />
        </mxCell>
        <mxCell id="Xc_M2AaOlMVjoZl0VrPC-27" value="" style="endArrow=classic;html=1;rounded=0;exitX=0;exitY=0.5;exitDx=0;exitDy=0;entryX=0;entryY=0.5;entryDx=0;entryDy=0;" edge="1" parent="1" source="Xc_M2AaOlMVjoZl0VrPC-9" target="Xc_M2AaOlMVjoZl0VrPC-2">
          <mxGeometry width="50" height="50" relative="1" as="geometry">
            <mxPoint x="110" y="280" as="sourcePoint" />
            <mxPoint x="160" y="230" as="targetPoint" />
            <Array as="points">
              <mxPoint y="320" />
              <mxPoint y="80" />
            </Array>
          </mxGeometry>
        </mxCell>
        <mxCell id="Xc_M2AaOlMVjoZl0VrPC-28" value="si" style="edgeLabel;html=1;align=center;verticalAlign=middle;resizable=0;points=[];" vertex="1" connectable="0" parent="Xc_M2AaOlMVjoZl0VrPC-27">
          <mxGeometry x="-0.7778" y="-2" relative="1" as="geometry">
            <mxPoint as="offset" />
          </mxGeometry>
        </mxCell>
        <mxCell id="Xc_M2AaOlMVjoZl0VrPC-38" style="edgeStyle=orthogonalEdgeStyle;rounded=0;orthogonalLoop=1;jettySize=auto;html=1;" edge="1" parent="1" source="Xc_M2AaOlMVjoZl0VrPC-34">
          <mxGeometry relative="1" as="geometry">
            <mxPoint x="240" y="585" as="targetPoint" />
          </mxGeometry>
        </mxCell>
        <mxCell id="Xc_M2AaOlMVjoZl0VrPC-48" style="edgeStyle=orthogonalEdgeStyle;rounded=0;orthogonalLoop=1;jettySize=auto;html=1;entryX=1;entryY=0.5;entryDx=0;entryDy=0;" edge="1" parent="1" source="Xc_M2AaOlMVjoZl0VrPC-34" target="Xc_M2AaOlMVjoZl0VrPC-47">
          <mxGeometry relative="1" as="geometry" />
        </mxCell>
        <mxCell id="Xc_M2AaOlMVjoZl0VrPC-34" value="A&amp;lt;B &amp;amp; A&amp;lt;C" style="rhombus;whiteSpace=wrap;html=1;" vertex="1" parent="1">
          <mxGeometry x="70" y="545" width="80" height="80" as="geometry" />
        </mxCell>
        <mxCell id="Xc_M2AaOlMVjoZl0VrPC-36" value="A es menor" style="shape=document;whiteSpace=wrap;html=1;boundedLbl=1;" vertex="1" parent="1">
          <mxGeometry x="250" y="550" width="120" height="80" as="geometry" />
        </mxCell>
        <mxCell id="Xc_M2AaOlMVjoZl0VrPC-42" style="edgeStyle=orthogonalEdgeStyle;rounded=0;orthogonalLoop=1;jettySize=auto;html=1;entryX=1;entryY=0.5;entryDx=0;entryDy=0;" edge="1" parent="1" source="Xc_M2AaOlMVjoZl0VrPC-39" target="Xc_M2AaOlMVjoZl0VrPC-41">
          <mxGeometry relative="1" as="geometry" />
        </mxCell>
        <mxCell id="Xc_M2AaOlMVjoZl0VrPC-53" value="si" style="edgeLabel;html=1;align=center;verticalAlign=middle;resizable=0;points=[];" vertex="1" connectable="0" parent="Xc_M2AaOlMVjoZl0VrPC-42">
          <mxGeometry x="-0.1111" y="-4" relative="1" as="geometry">
            <mxPoint as="offset" />
          </mxGeometry>
        </mxCell>
        <mxCell id="Xc_M2AaOlMVjoZl0VrPC-46" style="edgeStyle=orthogonalEdgeStyle;rounded=0;orthogonalLoop=1;jettySize=auto;html=1;entryX=1;entryY=0.5;entryDx=0;entryDy=0;" edge="1" parent="1" source="Xc_M2AaOlMVjoZl0VrPC-39" target="Xc_M2AaOlMVjoZl0VrPC-45">
          <mxGeometry relative="1" as="geometry">
            <Array as="points">
              <mxPoint x="-70" y="720" />
            </Array>
          </mxGeometry>
        </mxCell>
        <mxCell id="Xc_M2AaOlMVjoZl0VrPC-54" value="no" style="edgeLabel;html=1;align=center;verticalAlign=middle;resizable=0;points=[];" vertex="1" connectable="0" parent="Xc_M2AaOlMVjoZl0VrPC-46">
          <mxGeometry x="0.4222" y="-2" relative="1" as="geometry">
            <mxPoint as="offset" />
          </mxGeometry>
        </mxCell>
        <mxCell id="Xc_M2AaOlMVjoZl0VrPC-49" style="edgeStyle=orthogonalEdgeStyle;rounded=0;orthogonalLoop=1;jettySize=auto;html=1;entryX=0;entryY=0.5;entryDx=0;entryDy=0;" edge="1" parent="1" source="Xc_M2AaOlMVjoZl0VrPC-39" target="Xc_M2AaOlMVjoZl0VrPC-47">
          <mxGeometry relative="1" as="geometry" />
        </mxCell>
        <mxCell id="Xc_M2AaOlMVjoZl0VrPC-39" value="B&amp;lt;C &amp;amp; B&amp;lt;A" style="rhombus;whiteSpace=wrap;html=1;" vertex="1" parent="1">
          <mxGeometry x="-110" y="545" width="80" height="80" as="geometry" />
        </mxCell>
        <mxCell id="Xc_M2AaOlMVjoZl0VrPC-41" value="B es menor" style="shape=document;whiteSpace=wrap;html=1;boundedLbl=1;" vertex="1" parent="1">
          <mxGeometry x="-320" y="545" width="120" height="80" as="geometry" />
        </mxCell>
        <mxCell id="Xc_M2AaOlMVjoZl0VrPC-43" value="" style="endArrow=classic;html=1;rounded=0;exitX=0.5;exitY=0;exitDx=0;exitDy=0;entryX=0.998;entryY=0.395;entryDx=0;entryDy=0;entryPerimeter=0;" edge="1" parent="1" source="Xc_M2AaOlMVjoZl0VrPC-18" target="Xc_M2AaOlMVjoZl0VrPC-23">
          <mxGeometry width="50" height="50" relative="1" as="geometry">
            <mxPoint x="60" y="510" as="sourcePoint" />
            <mxPoint x="110" y="460" as="targetPoint" />
            <Array as="points">
              <mxPoint x="-70" y="302" />
            </Array>
          </mxGeometry>
        </mxCell>
        <mxCell id="Xc_M2AaOlMVjoZl0VrPC-52" value="no" style="edgeLabel;html=1;align=center;verticalAlign=middle;resizable=0;points=[];" vertex="1" connectable="0" parent="Xc_M2AaOlMVjoZl0VrPC-43">
          <mxGeometry x="-0.5355" relative="1" as="geometry">
            <mxPoint as="offset" />
          </mxGeometry>
        </mxCell>
        <mxCell id="Xc_M2AaOlMVjoZl0VrPC-45" value="C es menor" style="shape=document;whiteSpace=wrap;html=1;boundedLbl=1;" vertex="1" parent="1">
          <mxGeometry x="-320" y="680" width="120" height="80" as="geometry" />
        </mxCell>
        <mxCell id="Xc_M2AaOlMVjoZl0VrPC-47" value="Fin" style="rounded=1;whiteSpace=wrap;html=1;" vertex="1" parent="1">
          <mxGeometry x="-30" y="820" width="120" height="60" as="geometry" />
        </mxCell>
      </root>
    </mxGraphModel>
  </diagram>
</mxfile>
